<svg width="64" height="64" viewBox="0 0 64 64" fill="none" xmlns="http://www.w3.org/2000/svg">
<circle cx="32" cy="32" r="31" stroke="#116ACC" stroke-width="2"/>
<mask id="path-2-inside-1" fill="white">
<path d="M64 32C64 36.2023 63.1723 40.3635 61.5641 44.2459C59.956 48.1283 57.5989 51.6559 54.6274 54.6274C51.6559 57.5989 48.1283 59.956 44.2459 61.5641C40.3634 63.1723 36.2023 64 32 64V62.0001C35.9397 62.0001 39.8408 61.2241 43.4805 59.7164C47.1203 58.2088 50.4275 55.999 53.2132 53.2132C55.999 50.4275 58.2088 47.1203 59.7164 43.4805C61.2241 39.8408 62.0001 35.9397 62.0001 32H64Z"/>
</mask>
<path d="M64 32C64 36.2023 63.1723 40.3635 61.5641 44.2459C59.956 48.1283 57.5989 51.6559 54.6274 54.6274C51.6559 57.5989 48.1283 59.956 44.2459 61.5641C40.3634 63.1723 36.2023 64 32 64V62.0001C35.9397 62.0001 39.8408 61.2241 43.4805 59.7164C47.1203 58.2088 50.4275 55.999 53.2132 53.2132C55.999 50.4275 58.2088 47.1203 59.7164 43.4805C61.2241 39.8408 62.0001 35.9397 62.0001 32H64Z" stroke="#B3CEE2" stroke-width="4" mask="url(#path-2-inside-1)"/>
</svg>
